<svg xmlns="http://www.w3.org/2000/svg" width="24" height="24" viewBox="0 0 24 24" fill="none">
  <path fill-rule="evenodd" clip-rule="evenodd" d="M21.7071 2.29289C21.9788 2.56453 22.0708 2.96776 21.9439 3.33035L14.9439 23.3303C14.8084 23.7173 14.4504 23.9825 14.0408 23.9992C13.6311 24.0159 13.2527 23.7808 13.0862 23.4061L9.2424 14.7576L0.593867 10.9138C0.219186 10.7473 -0.0158775 10.3689 0.000836285 9.95923C0.0175501 9.54956 0.282654 9.19159 0.669655 9.05614L20.6697 2.05614C21.0322 1.92923 21.4355 2.02125 21.7071 2.29289ZM3.71108 10.1106L10.4061 13.0862C10.6324 13.1867 10.8133 13.3676 10.9138 13.5939L13.8894 20.2889L19.37 4.62997L3.71108 10.1106Z" fill="white"/>
  <path fill-rule="evenodd" clip-rule="evenodd" d="M21.7071 2.29289C22.0976 2.68342 22.0976 3.31658 21.7071 3.70711L10.7071 14.7071C10.3166 15.0976 9.68342 15.0976 9.29289 14.7071C8.90237 14.3166 8.90237 13.6834 9.29289 13.2929L20.2929 2.29289C20.6834 1.90237 21.3166 1.90237 21.7071 2.29289Z" fill="white"/>
</svg>